<?xml version="1.0" encoding="UTF-8" standalone="no"?>
<!DOCTYPE svg PUBLIC "-//W3C//DTD SVG 1.1//EN" "http://www.w3.org/Graphics/SVG/1.1/DTD/svg11.dtd">
<svg version="1.1" xmlns="http://www.w3.org/2000/svg" xmlns:xlink="http://www.w3.org/1999/xlink" preserveAspectRatio="xMidYMid meet" viewBox="0 0 640 640" width="640" height="640"><defs><path d="M620 320C620 485.57 485.57 620 320 620C154.43 620 20 485.57 20 320C20 154.43 154.43 20 320 20C485.57 20 620 154.43 620 320Z" id="a3s7EyGsZ"></path><path d="M283.89 576.39L283.89 496.71" id="a4MBlrYP0F"></path><path d="M382.52 167.86L320.05 63.61L257.48 167.86L257.48 341.25L195 418.36L195 543.61L257.48 480.99L382.52 480.99L445 543.61L445 418.36L382.52 341.25L382.52 167.86Z" id="caJ05RPxn"></path><path d="M356.11 576.39L356.11 496.71" id="b1nm3t8pL"></path><path d="M320 563.85L320 493.5" id="btXbvm4hT"></path></defs><g><g><g><use xlink:href="#a3s7EyGsZ" opacity="1" fill="#e4bf00" fill-opacity="1"></use></g><g><use xlink:href="#a4MBlrYP0F" opacity="1" fill="#23648f" fill-opacity="1"></use><g><use xlink:href="#a4MBlrYP0F" opacity="1" fill-opacity="0" stroke="#23648f" stroke-width="6" stroke-opacity="1"></use></g></g><g><use xlink:href="#caJ05RPxn" opacity="1" fill="#23648f" fill-opacity="1"></use></g><g><use xlink:href="#b1nm3t8pL" opacity="1" fill="#23648f" fill-opacity="1"></use><g><use xlink:href="#b1nm3t8pL" opacity="1" fill-opacity="0" stroke="#23648f" stroke-width="6" stroke-opacity="1"></use></g></g><g><use xlink:href="#btXbvm4hT" opacity="1" fill="#23648f" fill-opacity="1"></use><g><use xlink:href="#btXbvm4hT" opacity="1" fill-opacity="0" stroke="#23648f" stroke-width="6" stroke-opacity="1"></use></g></g></g></g></svg>