<?xml version="1.0" encoding="UTF-8" standalone="no"?>
<!DOCTYPE svg PUBLIC "-//W3C//DTD SVG 1.1//EN" "http://www.w3.org/Graphics/SVG/1.1/DTD/svg11.dtd">
<svg version="1.1" xmlns="http://www.w3.org/2000/svg" xmlns:xlink="http://www.w3.org/1999/xlink" preserveAspectRatio="xMidYMid meet" viewBox="0 0 640 640" width="640" height="640"><defs><path d="M620 320C620 485.57 485.57 620 320 620C154.43 620 20 485.57 20 320C20 154.43 154.43 20 320 20C485.57 20 620 154.43 620 320Z" id="e10spMEgeb"></path><path d="M283.89 576.39L283.89 496.71" id="f30lRiGM3a"></path><path d="M382.52 167.86L320.05 63.61L257.48 167.86L257.48 341.25L195 418.36L195 543.61L257.48 480.99L382.52 480.99L445 543.61L445 418.36L382.52 341.25L382.52 167.86Z" id="d1DfFmL0Bh"></path><path d="M356.11 576.39L356.11 496.71" id="axOVQcwf"></path><path d="M320 564.67L320 494.33" id="c4snBTu8OX"></path></defs><g><g><g><use xlink:href="#e10spMEgeb" opacity="1" fill="#f0db50" fill-opacity="1"></use></g><g><use xlink:href="#f30lRiGM3a" opacity="1" fill="#323330" fill-opacity="1"></use><g><use xlink:href="#f30lRiGM3a" opacity="1" fill-opacity="0" stroke="#323330" stroke-width="6" stroke-opacity="1"></use></g></g><g><use xlink:href="#d1DfFmL0Bh" opacity="1" fill="#323330" fill-opacity="1"></use></g><g><use xlink:href="#axOVQcwf" opacity="1" fill="#323330" fill-opacity="1"></use><g><use xlink:href="#axOVQcwf" opacity="1" fill-opacity="0" stroke="#323330" stroke-width="6" stroke-opacity="1"></use></g></g><g><use xlink:href="#c4snBTu8OX" opacity="1" fill="#323330" fill-opacity="1"></use><g><use xlink:href="#c4snBTu8OX" opacity="1" fill-opacity="0" stroke="#323330" stroke-width="6" stroke-opacity="1"></use></g></g></g></g></svg>